<?xml version="1.0" encoding="UTF-8" standalone="no"?>
<!DOCTYPE svg PUBLIC "-//W3C//DTD SVG 1.1//EN"
 "http://www.w3.org/Graphics/SVG/1.1/DTD/svg11.dtd">
<!-- Generated by graphviz version 2.48.0 (0)
 -->
<!-- Title: TibScholDataModel Pages: 1 -->
<svg width="984pt" height="556pt"
 viewBox="0.00 0.00 983.50 556.00" xmlns="http://www.w3.org/2000/svg" xmlns:xlink="http://www.w3.org/1999/xlink">
<g id="graph0" class="graph" transform="scale(1 1) rotate(0) translate(4 552)">
<title>TibScholDataModel</title>
<polygon fill="white" stroke="transparent" points="-4,4 -4,-552 979.5,-552 979.5,4 -4,4"/>
<text text-anchor="middle" x="487.75" y="-7.8" font-family="Times,serif" font-size="14.00">TibSchol Data Model</text>
<!-- Manuscript -->
<g id="node1" class="node">
<title>Manuscript</title>
<g id="a_node1"><a xlink:href="#Manuscript" xlink:title="{Manuscript}">
<polygon fill="none" stroke="black" points="556.5,-326.5 556.5,-362.5 618.5,-362.5 618.5,-326.5 556.5,-326.5"/>
<text text-anchor="middle" x="587.5" y="-342.6" font-family="Bitstream Vera Sans" font-size="8.00">Manuscript</text>
</a>
</g>
</g>
<!-- Work -->
<g id="node2" class="node">
<title>Work</title>
<g id="a_node2"><a xlink:href="#Work" xlink:title="{Work}">
<polygon fill="none" stroke="black" points="282.5,-23.5 282.5,-59.5 336.5,-59.5 336.5,-23.5 282.5,-23.5"/>
<text text-anchor="middle" x="309.5" y="-39.6" font-family="Bitstream Vera Sans" font-size="8.00">Work</text>
</a>
</g>
</g>
<!-- Manuscript&#45;&gt;Work -->
<g id="edge1" class="edge">
<title>Manuscript&#45;&gt;Work</title>
<g id="a_edge1"><a xlink:href="#manuscripttransmitsWork" xlink:title="transmits">
<path fill="none" stroke="black" d="M571.76,-326.45C525.04,-275.87 387.04,-126.46 332.27,-67.16"/>
<polygon fill="black" stroke="black" points="334.77,-64.7 325.41,-59.73 329.63,-69.45 334.77,-64.7"/>
</a>
</g>
<g id="a_edge1&#45;label"><a xlink:href="#manuscripttransmitsWork" xlink:title="transmits">
<text text-anchor="middle" x="455" y="-157.6" font-family="Bitstream Vera Sans" font-size="8.00">transmits</text>
</a>
</g>
</g>
<!-- TEIdocument -->
<g id="node7" class="node">
<title>TEIdocument</title>
<g id="a_node7"><a xlink:href="#TEIdocument" xlink:title="{TEI Document}">
<polygon fill="none" stroke="black" points="659.5,-23.5 659.5,-59.5 733.5,-59.5 733.5,-23.5 659.5,-23.5"/>
<text text-anchor="middle" x="696.5" y="-39.6" font-family="Bitstream Vera Sans" font-size="8.00">TEI Document</text>
</a>
</g>
</g>
<!-- Manuscript&#45;&gt;TEIdocument -->
<g id="edge2" class="edge">
<title>Manuscript&#45;&gt;TEIdocument</title>
<g id="a_edge2"><a xlink:href="#manuscriptHasFulltextRepresentation" xlink:title="has fulltext representation">
<path fill="none" stroke="black" d="M590.6,-326.24C597.29,-290.68 614.72,-207.1 641.5,-141 651.98,-115.14 667.82,-87.57 679.82,-68.19"/>
<polygon fill="black" stroke="black" points="682.83,-69.97 685.19,-59.64 676.91,-66.24 682.83,-69.97"/>
</a>
</g>
<g id="a_edge2&#45;label"><a xlink:href="#manuscriptHasFulltextRepresentation" xlink:title="has fulltext representation">
<text text-anchor="middle" x="696" y="-157.6" font-family="Bitstream Vera Sans" font-size="8.00">has fulltext representation</text>
</a>
</g>
</g>
<!-- Work&#45;&gt;Work -->
<g id="edge3" class="edge">
<title>Work&#45;&gt;Work</title>
<g id="a_edge3"><a xlink:href="#WorkQuotesWork" xlink:title="quotes">
<path fill="none" stroke="black" d="M336.61,-45.38C369.61,-48.36 408.5,-47.06 408.5,-41.5 408.5,-36.5 377.11,-34.95 346.8,-36.84"/>
<polygon fill="black" stroke="black" points="346.32,-33.37 336.61,-37.62 346.85,-40.35 346.32,-33.37"/>
</a>
</g>
<g id="a_edge3&#45;label"><a xlink:href="#WorkQuotesWork" xlink:title="quotes">
<text text-anchor="middle" x="423" y="-39.6" font-family="Bitstream Vera Sans" font-size="8.00">quotes</text>
</a>
</g>
</g>
<!-- Work&#45;&gt;Work -->
<g id="edge4" class="edge">
<title>Work&#45;&gt;Work</title>
<g id="a_edge4"><a xlink:href="#WorkQuotesWork" xlink:title="quotes&#10;quotes directly&#10;quotes indirectly">
<path fill="none" stroke="black" d="M336.86,-46.82C396.69,-55.71 480.5,-53.93 480.5,-41.5 480.5,-29.75 405.61,-27.52 346.87,-34.82"/>
<polygon fill="black" stroke="black" points="346.3,-31.37 336.86,-36.18 347.24,-38.3 346.3,-31.37"/>
</a>
</g>
<g id="a_edge4&#45;label"><a xlink:href="#WorkQuotesWork" xlink:title="quotes&#10;quotes directly&#10;quotes indirectly">
<text text-anchor="middle" x="515" y="-48.6" font-family="Bitstream Vera Sans" font-size="8.00">quotes</text>
<text text-anchor="middle" x="515" y="-39.6" font-family="Bitstream Vera Sans" font-size="8.00">quotes directly</text>
<text text-anchor="middle" x="515" y="-30.6" font-family="Bitstream Vera Sans" font-size="8.00">quotes indirectly</text>
</a>
</g>
</g>
<!-- Person -->
<g id="node3" class="node">
<title>Person</title>
<g id="a_node3"><a xlink:href="#Person" xlink:title="{Person}">
<polygon fill="none" stroke="black" points="115.5,-326.5 115.5,-362.5 169.5,-362.5 169.5,-326.5 115.5,-326.5"/>
<text text-anchor="middle" x="142.5" y="-342.6" font-family="Bitstream Vera Sans" font-size="8.00">Person</text>
</a>
</g>
</g>
<!-- Person&#45;&gt;Work -->
<g id="edge5" class="edge">
<title>Person&#45;&gt;Work</title>
<g id="a_edge5"><a xlink:href="#personWroteWork" xlink:title="is author of">
<path fill="none" stroke="black" d="M151.96,-326.45C179.79,-276.28 261.57,-128.89 295,-68.63"/>
<polygon fill="black" stroke="black" points="298.15,-70.17 299.94,-59.73 292.03,-66.78 298.15,-70.17"/>
</a>
</g>
<g id="a_edge5&#45;label"><a xlink:href="#personWroteWork" xlink:title="is author of">
<text text-anchor="middle" x="277" y="-157.6" font-family="Bitstream Vera Sans" font-size="8.00">is author of</text>
</a>
</g>
</g>
<!-- Person&#45;&gt;Person -->
<g id="edge6" class="edge">
<title>Person&#45;&gt;Person</title>
<g id="a_edge6"><a xlink:href="#PersonQuotesPerson" xlink:title="quotes">
<path fill="none" stroke="gray" stroke-dasharray="5,2" d="M169.61,-352.93C202.61,-359.4 241.5,-356.59 241.5,-344.5 241.5,-333.64 210.11,-330.27 179.8,-334.39"/>
<polygon fill="gray" stroke="gray" points="178.91,-330.99 169.61,-336.07 180.05,-337.89 178.91,-330.99"/>
</a>
</g>
<g id="a_edge6&#45;label"><a xlink:href="#PersonQuotesPerson" xlink:title="quotes">
<text text-anchor="middle" x="256" y="-342.6" font-family="Bitstream Vera Sans" font-size="8.00" fill="gray">quotes</text>
</a>
</g>
</g>
<!-- Person&#45;&gt;Person -->
<g id="edge7" class="edge">
<title>Person&#45;&gt;Person</title>
<g id="a_edge7"><a xlink:href="#PersonWasFatherOfPerson" xlink:title="Was Father Of&#10;Was Mother Of&#10;was sibling of&#10;was nephew of&#10;Was Uncle Of&#10;Was Aunt Of&#10;Was Cousin Of&#10;Was Fellow Member Of Clan With&#10;Was Student Of&#10;Was Disciple Of&#10;Was Spiritual Friend Of&#10;Was Fllow Student Of&#10;Was Patron Of&#10;Was Friend/Fellow Monk Of&#10;met&#10;succeeded&#10;worked with&#10;ordained&#10;quotes">
<path fill="none" stroke="black" d="M169.86,-356.05C229.69,-375.36 313.5,-371.51 313.5,-344.5 313.5,-318.92 238.3,-314.11 179.51,-330.09"/>
<polygon fill="black" stroke="black" points="178.45,-326.75 169.86,-332.95 180.44,-333.46 178.45,-326.75"/>
</a>
</g>
<g id="a_edge7&#45;label"><a xlink:href="#PersonWasFatherOfPerson" xlink:title="Was Father Of&#10;Was Mother Of&#10;was sibling of&#10;was nephew of&#10;Was Uncle Of&#10;Was Aunt Of&#10;Was Cousin Of&#10;Was Fellow Member Of Clan With&#10;Was Student Of&#10;Was Disciple Of&#10;Was Spiritual Friend Of&#10;Was Fllow Student Of&#10;Was Patron Of&#10;Was Friend/Fellow Monk Of&#10;met&#10;succeeded&#10;worked with&#10;ordained&#10;quotes">
<text text-anchor="middle" x="380" y="-423.6" font-family="Bitstream Vera Sans" font-size="8.00">Was Father Of</text>
<text text-anchor="middle" x="380" y="-414.6" font-family="Bitstream Vera Sans" font-size="8.00">Was Mother Of</text>
<text text-anchor="middle" x="380" y="-405.6" font-family="Bitstream Vera Sans" font-size="8.00">was sibling of</text>
<text text-anchor="middle" x="380" y="-396.6" font-family="Bitstream Vera Sans" font-size="8.00">was nephew of</text>
<text text-anchor="middle" x="380" y="-387.6" font-family="Bitstream Vera Sans" font-size="8.00">Was Uncle Of</text>
<text text-anchor="middle" x="380" y="-378.6" font-family="Bitstream Vera Sans" font-size="8.00">Was Aunt Of</text>
<text text-anchor="middle" x="380" y="-369.6" font-family="Bitstream Vera Sans" font-size="8.00">Was Cousin Of</text>
<text text-anchor="middle" x="380" y="-360.6" font-family="Bitstream Vera Sans" font-size="8.00">Was Fellow Member Of Clan With</text>
<text text-anchor="middle" x="380" y="-351.6" font-family="Bitstream Vera Sans" font-size="8.00">Was Student Of</text>
<text text-anchor="middle" x="380" y="-342.6" font-family="Bitstream Vera Sans" font-size="8.00">Was Disciple Of</text>
<text text-anchor="middle" x="380" y="-333.6" font-family="Bitstream Vera Sans" font-size="8.00">Was Spiritual Friend Of</text>
<text text-anchor="middle" x="380" y="-324.6" font-family="Bitstream Vera Sans" font-size="8.00">Was Fllow Student Of</text>
<text text-anchor="middle" x="380" y="-315.6" font-family="Bitstream Vera Sans" font-size="8.00">Was Patron Of</text>
<text text-anchor="middle" x="380" y="-306.6" font-family="Bitstream Vera Sans" font-size="8.00">Was Friend/Fellow Monk Of</text>
<text text-anchor="middle" x="380" y="-297.6" font-family="Bitstream Vera Sans" font-size="8.00">met</text>
<text text-anchor="middle" x="380" y="-288.6" font-family="Bitstream Vera Sans" font-size="8.00">succeeded</text>
<text text-anchor="middle" x="380" y="-279.6" font-family="Bitstream Vera Sans" font-size="8.00">worked with</text>
<text text-anchor="middle" x="380" y="-270.6" font-family="Bitstream Vera Sans" font-size="8.00">ordained</text>
<text text-anchor="middle" x="380" y="-261.6" font-family="Bitstream Vera Sans" font-size="8.00">quotes</text>
</a>
</g>
</g>
<!-- Organization -->
<g id="node4" class="node">
<title>Organization</title>
<g id="a_node4"><a xlink:href="#Organization" xlink:title="{Organization}">
<polygon fill="none" stroke="black" points="0,-141.5 0,-177.5 69,-177.5 69,-141.5 0,-141.5"/>
<text text-anchor="middle" x="34.5" y="-157.6" font-family="Bitstream Vera Sans" font-size="8.00">Organization</text>
</a>
</g>
</g>
<!-- Person&#45;&gt;Organization -->
<g id="edge8" class="edge">
<title>Person&#45;&gt;Organization</title>
<g id="a_edge8"><a xlink:href="#PersonWasMemberOfOrganization" xlink:title="was member of">
<path fill="none" stroke="black" d="M132.34,-326.28C113.32,-294.05 72.23,-224.42 49.82,-186.46"/>
<polygon fill="black" stroke="black" points="52.65,-184.37 44.55,-177.54 46.62,-187.93 52.65,-184.37"/>
</a>
</g>
<g id="a_edge8&#45;label"><a xlink:href="#PersonWasMemberOfOrganization" xlink:title="was member of">
<text text-anchor="middle" x="101.5" y="-216.6" font-family="Bitstream Vera Sans" font-size="8.00">was member of</text>
</a>
</g>
</g>
<!-- Place -->
<g id="node8" class="node">
<title>Place</title>
<g id="a_node8"><a xlink:href="#Place" xlink:title="{Place}">
<polygon fill="none" stroke="black" points="7.5,-23.5 7.5,-59.5 61.5,-59.5 61.5,-23.5 7.5,-23.5"/>
<text text-anchor="middle" x="34.5" y="-39.6" font-family="Bitstream Vera Sans" font-size="8.00">Place</text>
</a>
</g>
</g>
<!-- Organization&#45;&gt;Place -->
<g id="edge9" class="edge">
<title>Organization&#45;&gt;Place</title>
<g id="a_edge9"><a xlink:href="#organizationLocatedInPlace" xlink:title="was located in">
<path fill="none" stroke="black" d="M34.5,-141.38C34.5,-122.54 34.5,-91.97 34.5,-69.8"/>
<polygon fill="black" stroke="black" points="38,-69.69 34.5,-59.69 31,-69.69 38,-69.69"/>
</a>
</g>
<g id="a_edge9&#45;label"><a xlink:href="#organizationLocatedInPlace" xlink:title="was located in">
<text text-anchor="middle" x="64.5" y="-98.6" font-family="Bitstream Vera Sans" font-size="8.00">was located in</text>
</a>
</g>
</g>
<!-- Instance -->
<g id="node5" class="node">
<title>Instance</title>
<g id="a_node5"><a xlink:href="#Instance" xlink:title="{Instance}">
<polygon fill="none" stroke="black" points="795.5,-511.5 795.5,-547.5 849.5,-547.5 849.5,-511.5 795.5,-511.5"/>
<text text-anchor="middle" x="822.5" y="-527.6" font-family="Bitstream Vera Sans" font-size="8.00">Instance</text>
</a>
</g>
</g>
<!-- Excerpt -->
<g id="node6" class="node">
<title>Excerpt</title>
<g id="a_node6"><a xlink:href="#Excerpt" xlink:title="{Excerpt}">
<polygon fill="none" stroke="black" points="669.5,-511.5 669.5,-547.5 723.5,-547.5 723.5,-511.5 669.5,-511.5"/>
<text text-anchor="middle" x="696.5" y="-527.6" font-family="Bitstream Vera Sans" font-size="8.00">Excerpt</text>
</a>
</g>
</g>
<!-- Excerpt&#45;&gt;Manuscript -->
<g id="edge11" class="edge">
<title>Excerpt&#45;&gt;Manuscript</title>
<g id="a_edge11"><a xlink:href="#excerptIsPartOf" xlink:title="is part of">
<path fill="none" stroke="black" d="M686.25,-511.28C667.05,-479.05 625.57,-409.42 602.96,-371.46"/>
<polygon fill="black" stroke="black" points="605.77,-369.34 597.65,-362.54 599.76,-372.92 605.77,-369.34"/>
</a>
</g>
<g id="a_edge11&#45;label"><a xlink:href="#excerptIsPartOf" xlink:title="is part of">
<text text-anchor="middle" x="683" y="-468.6" font-family="Bitstream Vera Sans" font-size="8.00">is part of</text>
</a>
</g>
</g>
<!-- Excerpt&#45;&gt;TEIdocument -->
<g id="edge10" class="edge">
<title>Excerpt&#45;&gt;TEIdocument</title>
<g id="a_edge10"><a xlink:href="#excerptIsExtractedFromTEIdocument" xlink:title="is extracted from">
<path fill="none" stroke="black" d="M705.27,-511.13C731.97,-455.92 807.79,-279.89 764.5,-141 755.78,-113 736.01,-85.94 720.02,-67.29"/>
<polygon fill="black" stroke="black" points="722.46,-64.77 713.22,-59.59 717.21,-69.4 722.46,-64.77"/>
</a>
</g>
<g id="a_edge10&#45;label"><a xlink:href="#excerptIsExtractedFromTEIdocument" xlink:title="is extracted from">
<text text-anchor="middle" x="811" y="-216.6" font-family="Bitstream Vera Sans" font-size="8.00">is extracted from</text>
</a>
</g>
</g>
<!-- Event -->
<g id="node9" class="node">
<title>Event</title>
<g id="a_node9"><a xlink:href="#Event" xlink:title="{Event}">
<polygon fill="none" stroke="black" points="921.5,-511.5 921.5,-547.5 975.5,-547.5 975.5,-511.5 921.5,-511.5"/>
<text text-anchor="middle" x="948.5" y="-527.6" font-family="Bitstream Vera Sans" font-size="8.00">Event</text>
</a>
</g>
</g>
</g>
</svg>
