<?xml version="1.0" encoding="UTF-8" standalone="no"?>
<!DOCTYPE svg PUBLIC "-//W3C//DTD SVG 1.1//EN"
 "http://www.w3.org/Graphics/SVG/1.1/DTD/svg11.dtd">
<!-- Generated by graphviz version 2.48.0 (0)
 -->
<!-- Title: TibScholDataModel Pages: 1 -->
<svg width="532pt" height="186pt"
 viewBox="0.00 0.00 532.00 186.00" xmlns="http://www.w3.org/2000/svg" xmlns:xlink="http://www.w3.org/1999/xlink">
<g id="graph0" class="graph" transform="scale(1 1) rotate(0) translate(4 182)">
<title>TibScholDataModel</title>
<polygon fill="white" stroke="transparent" points="-4,4 -4,-182 528,-182 528,4 -4,4"/>
<text text-anchor="middle" x="262" y="-7.8" font-family="Times,serif" font-size="14.00">TibSchol Data Model</text>
<!-- Manuscript -->
<g id="node1" class="node">
<title>Manuscript</title>
<g id="a_node1"><a xlink:href="#Manuscript" xlink:title="{Manuscript}">
<polygon fill="none" stroke="black" points="0,-23.5 0,-59.5 62,-59.5 62,-23.5 0,-23.5"/>
<text text-anchor="middle" x="31" y="-39.6" font-family="Bitstream Vera Sans" font-size="8.00">Manuscript</text>
</a>
</g>
</g>
<!-- Work -->
<g id="node2" class="node">
<title>Work</title>
<g id="a_node2"><a xlink:href="#Work" xlink:title="{Work}">
<polygon fill="none" stroke="black" points="142,-23.5 142,-59.5 196,-59.5 196,-23.5 142,-23.5"/>
<text text-anchor="middle" x="169" y="-39.6" font-family="Bitstream Vera Sans" font-size="8.00">Work</text>
</a>
</g>
</g>
<!-- Person -->
<g id="node3" class="node">
<title>Person</title>
<g id="a_node3"><a xlink:href="#Person" xlink:title="{Person}">
<polygon fill="none" stroke="black" points="344,-141.5 344,-177.5 398,-177.5 398,-141.5 344,-141.5"/>
<text text-anchor="middle" x="371" y="-157.6" font-family="Bitstream Vera Sans" font-size="8.00">Person</text>
</a>
</g>
</g>
<!-- Instance -->
<g id="node4" class="node">
<title>Instance</title>
<g id="a_node4"><a xlink:href="#Instance" xlink:title="{Instance}">
<polygon fill="none" stroke="black" points="280,-23.5 280,-59.5 334,-59.5 334,-23.5 280,-23.5"/>
<text text-anchor="middle" x="307" y="-39.6" font-family="Bitstream Vera Sans" font-size="8.00">Instance</text>
</a>
</g>
</g>
<!-- Excerpt -->
<g id="node5" class="node">
<title>Excerpt</title>
<g id="a_node5"><a xlink:href="#Excerpt" xlink:title="{Excerpt}">
<polygon fill="none" stroke="black" points="470,-141.5 470,-177.5 524,-177.5 524,-141.5 470,-141.5"/>
<text text-anchor="middle" x="497" y="-157.6" font-family="Bitstream Vera Sans" font-size="8.00">Excerpt</text>
</a>
</g>
</g>
<!-- Contribution -->
<g id="node6" class="node">
<title>Contribution</title>
<g id="a_node6"><a xlink:href="#Contribution" xlink:title="{Contribution}">
<polygon fill="none" stroke="black" points="204.5,-141.5 204.5,-177.5 271.5,-177.5 271.5,-141.5 204.5,-141.5"/>
<text text-anchor="middle" x="238" y="-157.6" font-family="Bitstream Vera Sans" font-size="8.00">Contribution</text>
</a>
</g>
</g>
<!-- Contribution&#45;&gt;Manuscript -->
<g id="edge2" class="edge">
<title>Contribution&#45;&gt;Manuscript</title>
<g id="a_edge2"><a xlink:href="#contributionContributionOfItem" xlink:title="Contribution of">
<path fill="none" stroke="black" d="M204.22,-153.83C169.09,-147.59 113.9,-133.8 75,-105 62.13,-95.47 51.61,-81.03 44.09,-68.43"/>
<polygon fill="black" stroke="black" points="47.12,-66.67 39.16,-59.68 41.02,-70.11 47.12,-66.67"/>
</a>
</g>
<g id="a_edge2&#45;label"><a xlink:href="#contributionContributionOfItem" xlink:title="Contribution of">
<text text-anchor="middle" x="105.5" y="-98.6" font-family="Bitstream Vera Sans" font-size="8.00">Contribution of</text>
</a>
</g>
</g>
<!-- Contribution&#45;&gt;Work -->
<g id="edge1" class="edge">
<title>Contribution&#45;&gt;Work</title>
<g id="a_edge1"><a xlink:href="#contributionContributionOfWork" xlink:title="Contribution of">
<path fill="none" stroke="black" d="M204.35,-145.9C186.54,-137.3 166.28,-123.98 156,-105 150.08,-94.07 151.84,-80.72 155.69,-69.17"/>
<polygon fill="black" stroke="black" points="159.06,-70.18 159.47,-59.59 152.55,-67.61 159.06,-70.18"/>
</a>
</g>
<g id="a_edge1&#45;label"><a xlink:href="#contributionContributionOfWork" xlink:title="Contribution of">
<text text-anchor="middle" x="186.5" y="-98.6" font-family="Bitstream Vera Sans" font-size="8.00">Contribution of</text>
</a>
</g>
</g>
<!-- Contribution&#45;&gt;Instance -->
<g id="edge3" class="edge">
<title>Contribution&#45;&gt;Instance</title>
<g id="a_edge3"><a xlink:href="#contributionContributionOfInstance" xlink:title="Contribution of">
<path fill="none" stroke="black" d="M248.18,-141.38C259.65,-122.11 278.4,-90.57 291.65,-68.31"/>
<polygon fill="black" stroke="black" points="294.67,-70.07 296.78,-59.69 288.66,-66.49 294.67,-70.07"/>
</a>
</g>
<g id="a_edge3&#45;label"><a xlink:href="#contributionContributionOfInstance" xlink:title="Contribution of">
<text text-anchor="middle" x="305.5" y="-98.6" font-family="Bitstream Vera Sans" font-size="8.00">Contribution of</text>
</a>
</g>
</g>
<!-- Role -->
<g id="node7" class="node">
<title>Role</title>
<g id="a_node7"><a xlink:href="#Role" xlink:title="{Role}">
<polygon fill="none" stroke="black" points="418,-23.5 418,-59.5 472,-59.5 472,-23.5 418,-23.5"/>
<text text-anchor="middle" x="445" y="-39.6" font-family="Bitstream Vera Sans" font-size="8.00">Role</text>
</a>
</g>
</g>
<!-- Contribution&#45;&gt;Role -->
<g id="edge4" class="edge">
<title>Contribution&#45;&gt;Role</title>
<g id="a_edge4"><a xlink:href="#contributionAsRole" xlink:title="contribution as">
<path fill="none" stroke="black" d="M271.75,-144.74C295.31,-134.7 327.2,-120.24 354,-105 374.71,-93.22 396.77,-78.14 413.98,-65.75"/>
<polygon fill="black" stroke="black" points="416.48,-68.26 422.51,-59.54 412.36,-62.6 416.48,-68.26"/>
</a>
</g>
<g id="a_edge4&#45;label"><a xlink:href="#contributionAsRole" xlink:title="contribution as">
<text text-anchor="middle" x="397" y="-98.6" font-family="Bitstream Vera Sans" font-size="8.00">contribution as</text>
</a>
</g>
</g>
</g>
</svg>
